<svg xmlns="http://www.w3.org/2000/svg">
  <style> :root svg:not(:target) { display: none } </style>

  <svg viewBox="0 0 32 12" fill="none" id="icon-arrow">
    <line y1="6" x2="18" y2="6" stroke="black" stroke-width="2"/>
    <path d="M24 6L17.25 11.1962L17.25 0.803848L24 6Z" fill="black"/>
  </svg>

  <svg viewBox="0 0 32 12" fill="none" id="icon-arrow-long">
    <line y1="6" x2="26" y2="6" stroke="black" stroke-width="2"/>
    <path d="M32 6L25.25 11.1962L25.25 0.803848L32 6Z" fill="black"/>
  </svg>

  <svg viewBox="0 0 68 29" fill="none" id="icon-cat-pro">
    <path d="M61.5591 2.87843C62.1364 1.95997 62.9036 1.17573 63.8091 0.578427C64.3091 0.228427 64.6091 0.228427 64.9091 0.878427C65.3091 1.82843 65.6591 2.82843 65.3591 3.87843C65.3045 4.05651 65.2942 4.24523 65.3291 4.4282C65.3639 4.61117 65.4429 4.78288 65.5591 4.92843C65.8591 5.32843 66.1091 5.72843 66.3591 6.07843C66.6994 6.51031 66.9201 7.02408 66.9991 7.5682C67.078 8.11231 67.0125 8.66763 66.8091 9.17843C66.6256 9.67433 66.5908 10.213 66.7091 10.7284C66.809 11.2234 66.809 11.7334 66.7091 12.2284C66.6687 12.5991 66.5187 12.9494 66.2782 13.2344C66.0377 13.5194 65.7177 13.7262 65.3591 13.8284C64.7196 13.9501 64.1488 14.3069 63.7591 14.8284C63.7119 14.9052 63.6457 14.9686 63.5669 15.0124C63.488 15.0562 63.3993 15.0789 63.3091 15.0784C62.7091 15.1784 61.2091 13.8284 61.2091 13.2284V12.9284C61.2591 11.1284 61.1591 10.9784 59.5091 10.2284C59.1638 10.1066 58.8544 9.90037 58.6091 9.62843C58.3091 9.22843 57.9091 9.27843 57.4591 9.42843C57.0091 9.57843 56.7591 9.87843 56.8091 10.3784C56.9599 11.5889 57.0101 12.8097 56.9591 14.0284C56.9624 14.1675 56.9966 14.3041 57.0591 14.4284C58.6091 16.6784 59.2091 19.3284 59.9591 21.8784C60.5591 23.8284 61.6591 24.8784 63.6591 25.0284C63.9792 25.054 64.2968 25.1041 64.6091 25.1784C65.02 25.2444 65.4017 25.4322 65.7048 25.7174C66.0078 26.0027 66.2183 26.3723 66.3091 26.7784C66.6591 27.8284 66.4591 28.0784 65.4091 28.0784H62.1591C61.7384 28.0997 61.3259 27.9562 61.0091 27.6784C60.5031 27.2514 59.9282 26.9132 59.3091 26.6784C58.6247 26.4258 58.0323 25.9728 57.6091 25.3784C57.0234 24.5602 56.3531 23.806 55.6091 23.1284C54.2091 21.6784 52.7091 20.2784 51.4091 18.7784C50.4195 17.7563 49.8486 16.4006 49.8091 14.9784C49.8091 14.5284 49.7091 14.3284 49.2091 14.5284C49.0594 14.6234 48.8864 14.6753 48.7091 14.6784C47.3091 14.6784 46.6091 15.5284 46.1091 16.7784C45.6591 17.8284 45.0591 18.8284 44.5091 19.8784C44.1972 20.5357 44.0269 21.2511 44.0091 21.9784C44.0091 23.1784 44.3091 23.5784 45.4091 23.9784C46.1091 24.2284 46.7591 24.4784 47.1091 25.1784C47.5091 25.9784 47.4091 26.1784 46.5591 26.2284H43.1591C42.9631 26.2478 42.766 26.2052 42.5955 26.1065C42.425 26.0078 42.2899 25.8581 42.2091 25.6784L41.3091 24.1784C41.0438 23.7871 40.874 23.3389 40.8132 22.87C40.7524 22.4011 40.8024 21.9245 40.9591 21.4784C41.1755 20.6102 41.1926 19.7042 41.0091 18.8284C40.8831 18.2185 40.8939 17.5882 41.0409 16.9829C41.1879 16.3777 41.4674 15.8126 41.8591 15.3284C42.1591 14.9784 42.1591 14.8284 41.6591 14.7284C39.6146 14.2941 37.6325 13.6054 35.7591 12.6784C35.7459 12.6784 35.7331 12.6732 35.7238 12.6638C35.7144 12.6544 35.7091 12.6417 35.7091 12.6284C34.1091 12.0284 33.8091 12.1284 33.3591 13.7784C32.9591 15.1784 32.5591 16.5784 32.2591 18.0284C31.9091 19.6284 32.3091 21.1284 32.8091 22.6284C33.0091 23.2284 33.6091 23.1784 34.0591 23.3284C35.0591 23.6284 35.9091 24.0284 36.3091 25.0784C36.6591 25.8784 36.6091 25.9784 35.7591 25.9784C34.9091 25.9784 34.0591 25.9284 33.1591 25.9784C32.3996 25.9922 31.6584 25.7451 31.0591 25.2784C28.6591 23.6784 27.9591 21.2284 27.7591 18.5784C27.6591 16.9284 26.7591 15.6284 25.7091 14.3784C25.5091 14.1284 25.3091 14.0284 25.0091 14.2284C23.9359 14.8202 22.8153 15.3219 21.6591 15.7284C19.2462 16.5804 17.1289 18.1077 15.5591 20.1284C14.9729 20.8659 14.5933 21.746 14.4591 22.6784C14.3091 23.5784 14.5591 23.9784 15.4591 24.2284C16.3591 24.4784 16.8091 24.9784 16.9091 25.9284C16.9591 26.3284 16.8091 26.5284 16.4091 26.5284H12.3591C12.2266 26.519 12.0982 26.4778 11.9851 26.4081C11.8719 26.3385 11.7772 26.2425 11.7091 26.1284C11.081 25.3508 10.7449 24.3779 10.7591 23.3784C10.7329 21.6509 10.8837 19.9252 11.2091 18.2284C11.2759 17.7203 11.4656 17.2361 11.7618 16.8178C12.0581 16.3996 12.4519 16.06 12.9091 15.8284C15.8591 14.4284 17.4091 11.7784 18.8091 9.02843C19.1091 8.47843 18.8591 8.37843 18.3591 8.42843C16.9598 8.62269 15.634 9.17368 14.5091 10.0284C13.0362 11.1029 11.6487 12.2897 10.3591 13.5784C8.98394 14.9753 7.16046 15.8427 5.20911 16.0284C1.55911 16.2284 -0.140885 14.1784 0.00911497 10.8784C0.0426462 9.75323 0.466939 8.67482 1.20912 7.82843C1.46713 7.49393 1.81898 7.24392 2.21975 7.11033C2.62052 6.97674 3.05201 6.96563 3.45912 7.07843C4.20912 7.27843 4.40911 7.67843 4.10911 8.42843C3.95911 8.72843 3.75911 8.97843 3.60911 9.27843C3.39342 9.58491 3.22488 9.92198 3.10911 10.2784C2.55911 11.7784 3.30911 12.8284 4.85911 12.9784C6.50911 13.1284 7.85912 12.4284 9.10912 11.4284C10.6151 10.2226 11.9595 8.82775 13.1091 7.27843C13.9687 6.14713 15.0512 5.20407 16.2895 4.50749C17.5279 3.81091 18.8959 3.37559 20.3091 3.22843C21.4591 3.07843 22.4591 2.57843 23.5591 2.27843C25.6164 1.65123 27.7586 1.34761 29.9091 1.37843C30.9052 1.41991 31.8974 1.23172 32.8091 0.828427C35.2591 -0.171573 37.8091 -0.171573 40.3591 0.328427C42.3591 0.728427 44.3591 1.22843 46.3091 1.72843C47.4696 1.94467 48.6629 1.91057 49.8091 1.62843C52.0034 1.07219 54.248 0.737189 56.5091 0.628427C57.9904 0.55636 59.4667 0.848196 60.8091 1.47843C61.8091 1.92843 61.8091 1.92843 61.5591 2.87843Z" fill="black"/>
  </svg>

  <svg viewBox="0 0 36 50" fill="none" id="icon-cat-slim">
    <g clip-path="url(#clip0_135_3256)">
    <path d="M28.2034 0H28.008C27.6778 0.187081 27.415 0.473924 27.2571 0.819588C26.968 1.37738 26.7453 1.96735 26.5937 2.57732C26.5612 2.76073 26.4688 2.92811 26.331 3.05315C26.1932 3.17818 26.0179 3.25377 25.8326 3.26804C25.2658 3.36597 24.7288 3.59243 24.2626 3.93012C23.7965 4.26781 23.4135 4.7078 23.1429 5.21649C22.7708 5.87697 22.4526 6.5665 22.1914 7.27835C21.4611 9.17526 20.9006 11.134 20.2114 13.0464C19.8874 13.9175 19.872 13.9175 18.8949 13.9175C17.7274 13.9175 17.8097 13.7371 17.7943 15.0258C17.7943 15.433 17.9177 15.6392 18.3497 15.6186C18.4834 15.6186 18.684 15.5515 18.7354 15.7268C18.7869 15.9021 18.612 15.9794 18.5091 16.0825C17.8994 16.7029 17.1276 17.1388 16.2823 17.3402C15.3051 17.6031 14.3074 17.8093 13.356 18.1289C10.9131 18.9485 8.65543 20.0928 6.89657 22.0309C5.86814 23.2347 5.04455 24.6001 4.45886 26.0722C2.57143 30.5258 1.656 35.2165 0.946286 39.9536C0.612 42.1753 0.375429 44.4072 0.195429 46.6546C0.102857 47.7577 0 48.8763 0 50H17.1411C17.1696 49.7731 17.1283 49.5429 17.0229 49.3402C16.858 48.9289 16.5901 48.5672 16.2451 48.29C15.9 48.0128 15.4895 47.8295 15.0531 47.7577C14.6931 47.6753 14.652 47.567 14.8731 47.2835C15.2338 46.801 15.5103 46.2607 15.6909 45.6856C16.5291 43.2062 16.8531 40.6186 17.2594 38.0567C17.4889 36.0999 18.0894 34.2051 19.0286 32.4742C19.7611 31.2002 20.7382 30.0842 21.9034 29.1907C22.3303 28.866 22.3457 28.866 22.4177 29.4175C22.4691 29.7835 22.4794 30.1598 22.5051 30.5309C22.6595 32.9662 22.6285 35.4097 22.4126 37.8402C22.2184 39.7242 22.1926 41.6217 22.3354 43.5103C22.5399 45.7029 22.9304 47.8739 23.5029 50H30.3429C30.2536 49.442 29.9973 48.9243 29.6078 48.5156C29.2184 48.1069 28.7143 47.8264 28.1623 47.7113C27.5177 47.6087 26.8587 47.6438 26.2286 47.8144C25.92 47.8866 25.7914 47.8144 25.7657 47.4794C25.5529 44.7505 25.7261 42.0051 26.28 39.3247C26.966 36.2304 27.4912 33.1025 27.8537 29.9536C27.9887 28.6819 28.3881 27.4528 29.0263 26.3454C29.6383 25.2526 30.1731 24.1186 30.7749 23.0206C31.0138 22.6214 31.1575 22.1723 31.195 21.7083C31.2325 21.2443 31.1626 20.7779 30.9909 20.3454C30.852 19.9794 30.7183 19.6082 30.5486 19.2577C30.0343 18.2526 29.52 17.2577 29.0469 16.2423C28.7949 15.7268 28.8514 15.6649 29.412 15.6495C30.2503 15.6495 30.2503 15.6495 30.2657 14.8041C30.2657 14.6907 30.2657 14.5773 30.2657 14.4639C30.2657 14.1082 30.132 13.9124 29.7514 13.9485C29.4943 13.9485 29.2371 13.9485 28.9697 13.9485C28.6149 13.9485 28.512 13.799 28.5994 13.433C28.7729 12.838 29.1142 12.306 29.5823 11.9009C30.0503 11.4958 30.6252 11.2349 31.2377 11.1495C32.3772 11.0505 33.5251 11.1252 34.6423 11.3711C34.7712 11.4118 34.9109 11.4001 35.0312 11.3383C35.1515 11.2766 35.2427 11.1699 35.2851 11.0412C35.4909 10.5258 35.7171 10.0103 35.9486 9.49484C36.001 9.40339 36.0242 9.29801 36.015 9.19293C36.0058 9.08785 35.9647 8.98812 35.8971 8.90722C34.2514 6.81443 32.4669 4.86082 30.0343 3.60825C29.9168 3.55754 29.8138 3.47814 29.7347 3.3773C29.6557 3.27646 29.6031 3.15738 29.5817 3.03093C29.444 2.29408 29.225 1.57487 28.9286 0.886598C28.7895 0.519904 28.5349 0.20865 28.2034 0V0Z" fill="black"/>
    </g>
    <defs>
    <clipPath id="clip0_135_3256">
    <rect width="36" height="50" fill="white"/>
    </clipPath>
    </defs>
  </svg>

  <svg viewBox="0 0 30 32" fill="none" id="icon-leaf">
    <g clip-path="url(#clip0_130_911)">
    <path d="M27.8438 2.767C27.7434 2.317 27.3647 2 26.9325 2C26.9306 2 26.9288 2 26.9269 2C21.9891 2.033 9.98156 2.916 5.13375 10.38C2.61562 14.258 2.39906 19.293 4.48969 25.345C4.50562 25.392 4.53844 25.424 4.56 25.467C3.81281 27.44 3.52312 28.753 3.51562 28.79C3.40687 29.33 3.73031 29.862 4.23656 29.978C4.30219 29.993 4.36781 30 4.43344 30C4.86562 30 5.25469 29.679 5.34937 29.21C5.36906 29.108 7.75781 18.837 16.2028 12.832C16.6341 12.526 16.7503 11.905 16.4625 11.445C16.1747 10.985 15.5934 10.86 15.1622 11.168C10.3734 14.573 7.42406 19.176 5.68969 22.824C4.44844 18.246 4.77375 14.447 6.67594 11.519C10.4194 5.755 19.2984 4.365 24.6581 4.071C23.505 5.872 22.245 9.174 22.245 15C22.245 18.12 21.4153 20.522 19.7803 22.14C17.1591 24.731 12.9009 24.974 9.78656 24.724C9.26906 24.679 8.82 25.095 8.78062 25.646C8.74125 26.196 9.12844 26.676 9.64406 26.718C10.2675 26.769 10.9331 26.8 11.625 26.8C14.7956 26.8 18.4941 26.137 21.0544 23.606C23.0888 21.595 24.12 18.7 24.12 15.001C24.12 5.902 27.3356 3.905 27.3516 3.896C27.7416 3.687 27.9459 3.219 27.8438 2.767Z" fill="white"/>
    </g>
    <defs>
    <clipPath id="clip0_130_911">
    <rect width="30" height="32" fill="white"/>
    </clipPath>
    </defs>
  </svg>

  <svg viewBox="0 0 27 29" fill="none" id="icon-glass">
    <path d="M11.375 0C9.74375 0 8.475 1.35937 8.475 3.08125C8.475 4.80312 9.74375 6.1625 11.375 6.1625C13.0063 6.1625 14.275 4.80312 14.275 3.08125C14.275 1.35937 13.0063 0 11.375 0ZM11.375 1.17812C12.3719 1.17812 13.0969 2.02094 13.0969 3.08125C13.0969 4.07812 12.3084 4.98438 11.375 4.98438C10.3781 4.98438 9.65313 4.14156 9.65313 3.08125C9.65313 2.08437 10.4325 1.17812 11.375 1.17812ZM0.5 24.7406C0.5 25.9188 0.907813 26.9156 1.85938 27.7313C2.85625 28.5831 4.03438 28.5106 4.03438 28.5106H23.0656C23.845 28.5106 24.8781 28.13 25.6937 27.0606C26.5366 26.0638 26.4822 24.7044 26.4822 24.7044V7.48563C26.4822 7.05063 26.3734 6.8875 25.7391 6.8875C25.1047 6.8875 25.0503 7.15938 25.0503 7.47656V24.6953C25.0322 24.9944 24.9778 25.7828 24.3072 26.4172C23.5731 27.0425 22.8572 26.9609 22.8572 26.9609C22.8572 26.9609 4.73219 26.9609 3.82594 26.9338C3.48156 26.8703 2.91969 26.7434 2.37594 26.0275C1.86844 25.3025 1.96812 24.3962 1.96812 24.3962V7.1775C1.96812 6.71531 1.7325 6.54313 1.24313 6.54313C0.75375 6.54313 0.5 6.71531 0.5 7.12313V24.7406ZM16.8125 8.42813C15.725 8.66375 14.6375 8.80875 12.5531 10.7844C10.4688 12.7781 8.92813 12.6875 7.3875 12.5969C5.84688 12.5063 4.21563 11.0563 3.94375 10.6938C3.60844 10.3403 3.0375 10.5759 2.85625 10.8116C2.70219 11.0472 2.70219 11.455 2.965 11.8084C4.23375 12.9866 5.41188 13.8928 7.6775 14.0741C9.94312 14.2916 12.1181 13.2675 13.5681 11.8084C15.0181 10.3584 15.7431 10.0866 16.8306 9.90531C19.4587 9.48844 20.9994 10.5216 21.9056 11.1741C22.9025 12.2616 23.1744 11.9534 23.4462 11.6453C23.99 10.9294 23.2197 10.3766 22.3588 9.74219C20.5463 8.56406 18.8244 8.11094 16.8306 8.47344L16.8125 8.42813ZM7.75 15.5875C6.57188 15.5875 5.66562 16.5844 5.66562 17.8531C5.66562 19.1219 6.57188 20.1188 7.75 20.1188C8.92813 20.1188 9.83438 19.1219 9.83438 17.8531C9.83438 16.5844 8.92813 15.5875 7.75 15.5875ZM19.5312 16.3669C17.9906 16.3669 16.7219 17.7262 16.7219 19.3575C16.7219 20.9888 17.9906 22.3481 19.5312 22.3481C21.0719 22.3481 22.3406 20.9888 22.3406 19.3575C22.3406 17.7262 21.0719 16.3669 19.5312 16.3669ZM19.5312 17.8169C20.3288 17.8169 20.9813 18.5147 20.9813 19.3575C20.9813 20.2184 20.3288 20.8981 19.5312 20.8981C18.7337 20.8981 18.0812 20.2003 18.0812 19.3575C18.0812 18.4966 18.7337 17.8169 19.5312 17.8169Z" fill="white"/>
  </svg>

  <svg viewBox="0 0 26 30" fill="none" id="icon-cutlery">
    <path fill-rule="evenodd" clip-rule="evenodd" d="M19.1173 0.0761497C19.491 -0.0786313 19.9211 0.00692445 20.2071 0.292922C21.1156 1.20142 22.3038 3.17065 23.2659 6.21082C24.2373 9.28039 25 13.5081 25 19C25 19.5523 24.5523 20 24 20H20.5V29C20.5 29.5523 20.0523 30 19.5 30C18.9477 30 18.5 29.5523 18.5 29V1.00003C18.5 0.595567 18.7436 0.230931 19.1173 0.0761497ZM20.5 18H22.9912C22.9053 13.1836 22.2051 9.48755 21.3591 6.81424C21.0807 5.93457 20.7885 5.1715 20.5 4.51895V18Z" fill="white"/>
    <path fill-rule="evenodd" clip-rule="evenodd" d="M6.5 0C7.05228 0 7.5 0.447715 7.5 1V29C7.5 29.5523 7.05228 30 6.5 30C5.94772 30 5.5 29.5523 5.5 29V1C5.5 0.447715 5.94772 0 6.5 0Z" fill="white"/>
    <path fill-rule="evenodd" clip-rule="evenodd" d="M2 0C2.55228 0 3 0.447715 3 1V6.5C3 7.05686 3.19203 7.81518 3.70088 8.41656C4.18001 8.98281 5.01446 9.5 6.49993 9.5C7.05221 9.5 7.49993 9.94771 7.49993 10.5C7.49993 11.0523 7.05221 11.5 6.49993 11.5C4.48547 11.5 3.06995 10.7672 2.1741 9.70844C1.30797 8.68482 1 7.44314 1 6.5V1C1 0.447715 1.44772 0 2 0Z" fill="white"/>
    <path fill-rule="evenodd" clip-rule="evenodd" d="M11 0C10.4477 0 10 0.447715 10 1V6.5C10 7.05686 9.80797 7.81518 9.29912 8.41656C8.81999 8.98281 7.9854 9.5 6.49993 9.5C5.94765 9.5 5.50007 9.94771 5.50007 10.5C5.50007 11.0523 5.94765 11.5 6.49993 11.5C8.51439 11.5 9.93005 10.7672 10.8259 9.70844C11.692 8.68482 12 7.44314 12 6.5V1C12 0.447715 11.5523 0 11 0Z" fill="white"/>
  </svg>

  <svg viewBox="0 0 27 31" fill="none" id="icon-clock">
   <path d="M6.12057 0C5.0538 0 5.0538 1.5831 6.12057 1.5831H12.7878V3.18731C5.96055 3.62002 0.562721 9.41417 0.562721 16.4854C0.562721 20.4959 2.31222 24.1159 5.07514 26.5539C5.55518 26.976 5.61919 27.7254 5.18181 28.1897L3.64567 29.7412C2.89894 30.4272 4.00837 31.4931 4.68043 30.7438L6.68595 28.7069C7.03798 28.3692 7.5607 28.2847 7.99807 28.4958C9.72279 29.3397 11.6191 29.784 13.5432 29.795C15.4673 29.8059 17.3687 29.3833 19.1031 28.5591C19.5298 28.348 20.0632 28.4325 20.4045 28.7702L22.3461 30.7438C23.0288 31.377 24.0102 30.4272 23.3915 29.7412L21.9407 28.2636C21.4926 27.8098 21.5567 27.0605 22.0474 26.6277C23.5031 25.3585 24.6674 23.7959 25.4623 22.0447C26.2571 20.2936 26.6641 18.3944 26.6558 16.4748C26.6558 9.40362 21.226 3.59891 14.388 3.18731V1.5831H21.0553C22.122 1.5831 22.122 0 21.0553 0H6.12057ZM2.00285 16.4748C2.00285 9.94187 7.198 4.65431 13.6093 4.65431C20.0098 4.65431 25.205 9.94187 25.205 16.4748C25.205 23.0183 20.0098 28.3164 13.6093 28.3164C7.20867 28.3164 2.00285 23.0183 2.00285 16.4748ZM12.7985 8.37988C12.7985 7.28226 14.4627 7.28226 14.4627 8.37988V17.0131C14.4627 17.237 14.3728 17.4517 14.2127 17.6101C14.0527 17.7684 13.8356 17.8574 13.6093 17.8574C13.3961 17.8574 13.1915 17.7743 13.0397 17.6262C12.888 17.478 12.8013 17.2767 12.7985 17.0658V8.37988ZM7.80605 10.9973C8.11444 10.9973 8.4102 10.8761 8.62826 10.6603C8.84632 10.4446 8.96883 10.152 8.96883 9.84688C8.96883 9.54178 8.84632 9.24918 8.62826 9.03344C8.4102 8.8177 8.11444 8.6965 7.80605 8.6965C7.51825 8.72386 7.25108 8.85633 7.05666 9.06805C6.86224 9.27977 6.75453 9.55556 6.75453 9.84161C6.75453 10.1277 6.86224 10.4034 7.05666 10.6152C7.25108 10.8269 7.51825 10.9593 7.80605 10.9867V10.9973ZM19.4018 10.9973C19.7102 10.9973 20.0059 10.8761 20.224 10.6603C20.4421 10.4446 20.5646 10.152 20.5646 9.84688C20.5646 9.54178 20.4421 9.24918 20.224 9.03344C20.0059 8.8177 19.7102 8.6965 19.4018 8.6965C19.114 8.72386 18.8468 8.85633 18.6524 9.06805C18.458 9.27977 18.3503 9.55556 18.3503 9.84161C18.3503 10.1277 18.458 10.4034 18.6524 10.6152C18.8468 10.8269 19.114 10.9593 19.4018 10.9867V10.9973ZM8.96883 23.5882C8.96883 25.1185 6.64328 25.1185 6.64328 23.5882C6.64328 22.0579 8.96883 22.0579 8.96883 23.5882ZM13.6093 27.0288C13.7706 27.0441 13.9334 27.0259 14.0872 26.9754C14.241 26.9248 14.3824 26.843 14.5024 26.7352C14.6223 26.6273 14.7182 26.4959 14.7838 26.3493C14.8494 26.2026 14.8833 26.044 14.8833 25.8837C14.8833 25.7233 14.8494 25.5648 14.7838 25.4181C14.7182 25.2715 14.6223 25.14 14.5024 25.0322C14.3824 24.9244 14.241 24.8426 14.0872 24.792C13.9334 24.7414 13.7706 24.7232 13.6093 24.7386C13.3215 24.7659 13.0543 24.8984 12.8599 25.1101C12.6654 25.3219 12.5577 25.5976 12.5577 25.8837C12.5577 26.1697 12.6654 26.4455 12.8599 26.6572C13.0543 26.869 13.3215 27.0014 13.6093 27.0288ZM5.49117 16.6437C5.50668 16.8033 5.48829 16.9643 5.43717 17.1165C5.38606 17.2687 5.30336 17.4086 5.19437 17.5273C5.08539 17.646 4.95252 17.7408 4.80431 17.8057C4.6561 17.8706 4.49581 17.9041 4.33373 17.9041C4.17166 17.9041 4.01137 17.8706 3.86316 17.8057C3.71494 17.7408 3.58208 17.646 3.4731 17.5273C3.36411 17.4086 3.28141 17.2687 3.23029 17.1165C3.17918 16.9643 3.16079 16.8033 3.17629 16.6437C3.20396 16.3589 3.33785 16.0946 3.55185 15.9023C3.76585 15.7099 4.04461 15.6033 4.33373 15.6033C4.62286 15.6033 4.90162 15.7099 5.11562 15.9023C5.32962 16.0946 5.46351 16.3589 5.49117 16.6437ZM22.8794 17.794C23.0408 17.8094 23.2036 17.7912 23.3574 17.7406C23.5112 17.6901 23.6526 17.6082 23.7726 17.5004C23.8925 17.3926 23.9884 17.2611 24.054 17.1145C24.1196 16.9679 24.1535 16.8093 24.1535 16.6489C24.1535 16.4886 24.1196 16.33 24.054 16.1834C23.9884 16.0367 23.8925 15.9053 23.7726 15.7975C23.6526 15.6896 23.5112 15.6078 23.3574 15.5573C23.2036 15.5067 23.0408 15.4885 22.8794 15.5038C22.5916 15.5312 22.3245 15.6637 22.13 15.8754C21.9356 16.0871 21.8279 16.3629 21.8279 16.6489C21.8279 16.935 21.9356 17.2108 22.13 17.4225C22.3245 17.6342 22.5916 17.7667 22.8794 17.794ZM20.5646 23.5987C20.5646 25.1185 18.239 25.1185 18.239 23.5882C18.239 22.0579 20.5646 22.0579 20.5646 23.5882V23.5987Z" fill="white"/>
  </svg>

  <svg viewBox="0 0 40 40" fill="none" id="range-toggle">
    <rect x="1" y="1" width="38" height="38" rx="19" fill="white"/>
    <path d="M16 11L8 20L16 29V11Z" fill="#666666"/>
    <path d="M32 20L24 11V29L32 20Z" fill="#666666"/>
    <rect x="1" y="1" width="38" height="38" rx="19" stroke="#666666" stroke-width="2"/>
  </svg>

  <svg viewBox="0 0 40 40" fill="none" id="range-toggle-2">
    <rect x="1" y="1" width="38" height="38" rx="19" fill="white"/>
    <path d="M16 11L8 20L16 29V11Z" fill="#68B738"/>
    <path d="M32 20L24 11V29L32 20Z" fill="#68B738"/>
    <rect x="1" y="1" width="38" height="38" rx="19" stroke="#68B738" stroke-width="2"/>
  </svg>

  <svg viewBox="0 0 26 26" fill="none" id="icon-checkmark">
    <g id="tick">
    <path id="Vector" d="M11 17.718L5.3 11.2695L4.25 12.4574L11 20.0938L22.25 7.36648L21.2 6.09375L11 17.718Z" fill="#68B738"/>
    </g>
  </svg>

  <svg viewBox="0 0 20 20" fill="none" id="icon-email">
    <path d="M1.5 8.5V16.5H18.5V8.5M1.5 3.5H18.5V5.5L10 11.5L1.5 5.5V3.5Z" stroke="black" stroke-linecap="round" stroke-linejoin="round"/>
  </svg>

  <svg viewBox="0 0 20 20" fill="none" id="icon-phone">
    <path d="M10 10H18.5M18.5 10L16 7.5M18.5 10L16 12.5M8.5 2.5V7.5H5.5V12.5H8.5V17.5H6C4.5 17.5 3.5 16.5 3.5 15V5C3.5 3.5 4.5 2.5 6 2.5H8.5Z" stroke="black" stroke-linecap="round" stroke-linejoin="round"/>
  </svg>
</svg>
